<?xml version="1.0" encoding="UTF-8" standalone="no"?>

<svg
   xmlns:dc="http://purl.org/dc/elements/1.1/"
   xmlns:cc="http://creativecommons.org/ns#"
   xmlns:rdf="http://www.w3.org/1999/02/22-rdf-syntax-ns#"
   xmlns:svg="http://www.w3.org/2000/svg"
   xmlns="http://www.w3.org/2000/svg"
   xmlns:sodipodi="http://sodipodi.sourceforge.net/DTD/sodipodi-0.dtd"
   xmlns:inkscape="http://www.inkscape.org/namespaces/inkscape"
   width="26.45834mm"
   height="26.45833mm"
   viewBox="0 0 26.45834 26.45833"
   version="1.1"
   id="svg3958"
   sodipodi:docname="logo.svg">
  <defs
     id="defs3952" />
  <metadata
     id="metadata3955">
    <rdf:RDF>
      <cc:Work
         rdf:about="">
        <dc:format>image/svg+xml</dc:format>
        <dc:type
           rdf:resource="http://purl.org/dc/dcmitype/StillImage" />
        <dc:title></dc:title>
      </cc:Work>
    </rdf:RDF>
  </metadata>
  <g
     inkscape:label="Layer 1"
     inkscape:groupmode="layer"
     id="layer1"
     transform="translate(-195.41368,-238.41369)">
    <g
       id="g3971"
       transform="translate(0.75595429,1.5119047)">
      <path
         style="fill:#fefefe;stroke-width:0.02750346"
         d="m 194.65773,250.13096 v -13.22917 h 13.22917 13.22917 v 13.22917 13.22916 H 207.8869 194.65773 Z"
         id="path3981"
         inkscape:connector-curvature="0" />
      <path
         style="fill:#cecece;stroke-width:0.02750346"
         d="m 194.65773,250.13096 v -13.22917 h 13.22917 13.22917 v 13.22917 13.22916 H 207.8869 194.65773 Z m 22.69036,0.37129 v -9.44744 h -9.26866 -9.26867 v 9.44744 9.44744 h 9.26867 9.26866 z m -15.51195,7.75598 v -0.17877 h -0.19253 -0.19252 v -7.9485 -7.9485 h 6.43581 6.43581 v 0.19252 0.19252 h 0.17877 0.17878 v 1.51269 1.51269 h -4.71685 -4.71684 v 1.51269 1.5127 h 3.20415 3.20416 v 0.19252 0.19252 h 0.19252 0.19252 v 1.5127 1.51269 h -3.39667 -3.39668 v 1.51269 1.51269 h 4.53807 4.53807 v 0.17877 0.17877 h 0.17877 0.17878 v 1.51269 1.51269 h -6.42206 -6.42206 z"
         id="path3979"
         inkscape:connector-curvature="0" />
      <path
         style="fill:#49f516;stroke-width:0.02750346"
         d="m 194.65773,250.13096 v -13.22917 h 13.22917 13.22917 v 13.22917 13.22916 H 207.8869 194.65773 Z m 22.69036,0.17877 v -9.63997 h -9.46119 -9.46119 v 9.63997 9.63996 h 9.46119 9.46119 z m -15.897,-0.17877 v -7.9485 h 6.43581 6.43581 v 1.51269 1.51269 h -4.73059 -4.7306 v 1.70521 1.70522 h 3.39668 3.39668 v 1.51269 1.51269 h -3.39668 -3.39668 v 1.70521 1.70522 h 4.7306 4.73059 v 1.51269 1.51269 h -6.43581 -6.43581 z"
         id="path3977"
         inkscape:connector-curvature="0" />
      <path
         style="fill:#f00601;stroke-width:0.02750346"
         d="m 201.45109,250.13096 v -7.9485 h 6.43581 6.43581 v 1.51269 1.51269 h -4.73059 -4.7306 v 1.70521 1.70522 h 3.39668 3.39668 v 1.51269 1.51269 h -3.39668 -3.39668 v 1.70521 1.70522 h 4.7306 4.73059 v 1.51269 1.51269 h -6.43581 -6.43581 z"
         id="path3973"
         inkscape:connector-curvature="0" />
    </g>
  </g>
</svg>
